<?xml version="1.0" encoding="UTF-8" standalone="no"?>
<!DOCTYPE svg PUBLIC "-//W3C//DTD SVG 1.1//EN" "http://www.w3.org/Graphics/SVG/1.1/DTD/svg11.dtd">
<svg width="100%" height="100%" viewBox="0 0 896 896" version="1.1" xmlns="http://www.w3.org/2000/svg" xmlns:xlink="http://www.w3.org/1999/xlink" xml:space="preserve" xmlns:serif="http://www.serif.com/" style="fill-rule:evenodd;clip-rule:evenodd;stroke-linejoin:round;stroke-miterlimit:2;">
    <g>
        <g transform="matrix(1.309274,1.309274,-0.847699,0.847699,177.710485,-520.04139)">
            <path d="M626.535,197.863L626.535,625.688C626.535,662.265 607.308,691.96 583.626,691.96L361.905,691.96C338.223,691.96 318.997,662.265 318.997,625.688L318.997,197.863C318.997,161.286 338.223,131.591 361.905,131.591L583.626,131.591C607.308,131.591 626.535,161.286 626.535,197.863Z"/>
        </g>
        <g transform="matrix(1.205492,1.205492,-1.309274,1.309274,352.678729,-593.748181)">
            <rect x="290.69" y="276.735" width="357.809" height="35.485" style="fill:white;"/>
        </g>
        <g transform="matrix(0.437152,0,0,1.219572,526.072607,-121.41101)">
            <path d="M749.098,426.427L749.098,649.366C749.098,656.992 731.825,663.183 710.551,663.183L633.456,663.183C612.182,663.183 594.909,656.992 594.909,649.366L594.909,426.427C594.909,418.801 612.182,412.61 633.456,412.61L710.551,412.61C731.825,412.61 749.098,418.801 749.098,426.427Z"/>
        </g>
        <g transform="matrix(0.441968,0,0,0.282002,523.2075,594.971985)">
            <path d="M749.098,473.023L749.098,602.77C749.098,636.113 731.825,663.183 710.551,663.183L633.456,663.183C612.182,663.183 594.909,636.113 594.909,602.77L594.909,473.023C594.909,439.68 612.182,412.61 633.456,412.61L710.551,412.61C731.825,412.61 749.098,439.68 749.098,473.023Z"/>
        </g>
    </g>
</svg>
