<?xml version="1.0" encoding="UTF-8" standalone="no"?>
<!DOCTYPE svg PUBLIC "-//W3C//DTD SVG 1.1//EN" "http://www.w3.org/Graphics/SVG/1.1/DTD/svg11.dtd">
<svg width="100%" height="100%" viewBox="0 0 896 896" version="1.1" xmlns="http://www.w3.org/2000/svg" xmlns:xlink="http://www.w3.org/1999/xlink" xml:space="preserve" xmlns:serif="http://www.serif.com/" style="fill-rule:evenodd;clip-rule:evenodd;stroke-linejoin:round;stroke-miterlimit:2;">
    <g transform="matrix(1,0,0,1,-15.01367,-5.608028)">
        <path d="M657.629,188.834L657.629,718.382C657.629,772.087 614.027,815.689 560.321,815.689L365.706,815.689C312.001,815.689 268.399,772.087 268.399,718.382L268.399,188.834C268.399,135.129 312.001,91.527 365.706,91.527L560.321,91.527C614.027,91.527 657.629,135.129 657.629,188.834Z"/>
    </g>
    <g transform="matrix(0,0.954313,-1.054545,0,845.566197,192.171073)">
        <path d="M486.779,293.402L486.779,460.603C486.779,472.954 475.698,482.981 462.05,482.981L412.594,482.981C398.946,482.981 387.865,472.954 387.865,460.603L387.865,293.402C387.865,281.051 398.946,271.024 412.594,271.024L462.05,271.024C475.698,271.024 486.779,281.051 486.779,293.402Z" style="fill:white;"/>
    </g>
    <g transform="matrix(0.954313,0,0,1.054545,30.658163,211.946712)">
        <path d="M486.779,293.402L486.779,460.603C486.779,472.954 475.698,482.981 462.05,482.981L412.594,482.981C398.946,482.981 387.865,472.954 387.865,460.603L387.865,293.402C387.865,281.051 398.946,271.024 412.594,271.024L462.05,271.024C475.698,271.024 486.779,281.051 486.779,293.402Z" style="fill:white;"/>
    </g>
</svg>
