<?xml version="1.0" encoding="UTF-8" standalone="no"?>
<!DOCTYPE svg PUBLIC "-//W3C//DTD SVG 1.1//EN" "http://www.w3.org/Graphics/SVG/1.1/DTD/svg11.dtd">
<svg width="100%" height="100%" viewBox="0 0 896 896" version="1.1" xmlns="http://www.w3.org/2000/svg" xmlns:xlink="http://www.w3.org/1999/xlink" xml:space="preserve" xmlns:serif="http://www.serif.com/" style="fill-rule:evenodd;clip-rule:evenodd;stroke-linejoin:round;stroke-miterlimit:2;">
    <g transform="matrix(1.12398,1.12398,-0.940921,0.940921,288.383753,-455.151084)">
        <path d="M626.535,182.847L626.535,640.704C626.535,668.993 607.308,691.96 583.626,691.96L361.905,691.96C338.223,691.96 318.997,668.993 318.997,640.704L318.997,182.847C318.997,154.558 338.223,131.591 361.905,131.591L583.626,131.591C607.308,131.591 626.535,154.558 626.535,182.847Z"/>
    </g>
    <g transform="matrix(0.812529,0.812529,-0.467786,0.467786,331.933476,-204.205067)">
        <path d="M626.535,206.122L626.535,617.43C626.535,658.564 607.308,691.96 583.626,691.96L361.905,691.96C338.223,691.96 318.997,658.564 318.997,617.43L318.997,206.122C318.997,164.987 338.223,131.591 361.905,131.591L583.626,131.591C607.308,131.591 626.535,164.987 626.535,206.122Z" style="fill:white;"/>
    </g>
    <g transform="matrix(1.003143,1.003143,-0.322895,0.322895,0.552925,-53.055872)">
        <path d="M626.535,209.775L626.535,613.776C626.535,656.927 615.258,691.96 601.368,691.96L344.163,691.96C330.273,691.96 318.997,656.927 318.997,613.776L318.997,209.775C318.997,166.624 330.273,131.591 344.163,131.591L601.368,131.591C615.258,131.591 626.535,166.624 626.535,209.775Z"/>
    </g>
    <g transform="matrix(0,-0.135167,1.397103,0,-377.58683,918.082338)">
        <path d="M840.514,833.149L840.514,859.815C840.514,866.472 784.653,871.876 715.847,871.876L466.512,871.876C397.706,871.876 341.844,866.472 341.844,859.815L341.844,833.149C341.844,826.492 397.706,821.088 466.512,821.088L715.847,821.088C784.653,821.088 840.514,826.492 840.514,833.149Z"/>
    </g>
    <g transform="matrix(0,-0.437152,1.66728,0,-361.20481,1131.941995)">
        <path d="M749.098,422.717L749.098,653.076C749.098,658.655 731.825,663.183 710.551,663.183L633.456,663.183C612.182,663.183 594.909,658.655 594.909,653.076L594.909,422.717C594.909,417.138 612.182,412.61 633.456,412.61L710.551,412.61C731.825,412.61 749.098,417.138 749.098,422.717Z"/>
    </g>
</svg>
