<?xml version="1.0" encoding="UTF-8" standalone="no"?>
<!DOCTYPE svg PUBLIC "-//W3C//DTD SVG 1.1//EN" "http://www.w3.org/Graphics/SVG/1.1/DTD/svg11.dtd">
<svg width="100%" height="100%" viewBox="0 0 896 896" version="1.1" xmlns="http://www.w3.org/2000/svg" xmlns:xlink="http://www.w3.org/1999/xlink" xml:space="preserve" xmlns:serif="http://www.serif.com/" style="fill-rule:evenodd;clip-rule:evenodd;stroke-linejoin:round;stroke-miterlimit:2;">
    <g transform="matrix(1,0,0,1,15.448271,67.476783)">
        <g transform="matrix(0.5,0,0,0.836676,-49.103448,-231.422701)">
            <path d="M839.724,306.943L839.724,759.723C839.724,776.471 816.971,790.069 788.945,790.069L148.986,790.069C120.96,790.069 98.207,776.471 98.207,759.723L98.207,306.943C98.207,290.195 120.96,276.598 148.986,276.598L788.945,276.598C816.971,276.598 839.724,290.195 839.724,306.943Z"/>
        </g>
        <g transform="matrix(1,0,0,1,-98.206897,-239.816103)">
            <path d="M839.724,311.76L839.724,754.906C839.724,774.313 823.968,790.069 804.562,790.069L133.369,790.069C113.963,790.069 98.207,774.313 98.207,754.906L98.207,311.76C98.207,292.353 113.963,276.598 133.369,276.598L804.562,276.598C823.968,276.598 839.724,292.353 839.724,311.76Z"/>
        </g>
        <g transform="matrix(0.5,0,0,0.836676,-49.103448,-193.473308)">
            <path d="M839.724,306.943L839.724,759.723C839.724,776.471 816.971,790.069 788.945,790.069L148.986,790.069C120.96,790.069 98.207,776.471 98.207,759.723L98.207,306.943C98.207,290.195 120.96,276.598 148.986,276.598L788.945,276.598C816.971,276.598 839.724,290.195 839.724,306.943Z" style="fill:white;"/>
        </g>
        <g transform="matrix(1,0,0,1,-98.206897,-201.86671)">
            <path d="M839.724,311.76L839.724,754.906C839.724,774.313 823.968,790.069 804.562,790.069L133.369,790.069C113.963,790.069 98.207,774.313 98.207,754.906L98.207,311.76C98.207,292.353 113.963,276.598 133.369,276.598L804.562,276.598C823.968,276.598 839.724,292.353 839.724,311.76Z" style="fill:white;"/>
        </g>
        <g transform="matrix(0.5,0,0,0.836676,-49.103448,-155.582694)">
            <path d="M839.724,306.943L839.724,759.723C839.724,776.471 816.971,790.069 788.945,790.069L148.986,790.069C120.96,790.069 98.207,776.471 98.207,759.723L98.207,306.943C98.207,290.195 120.96,276.598 148.986,276.598L788.945,276.598C816.971,276.598 839.724,290.195 839.724,306.943Z"/>
        </g>
        <g transform="matrix(1,0,0,1,-98.206897,-163.976096)">
            <path d="M839.724,311.76L839.724,754.906C839.724,774.313 823.968,790.069 804.562,790.069L133.369,790.069C113.963,790.069 98.207,774.313 98.207,754.906L98.207,311.76C98.207,292.353 113.963,276.598 133.369,276.598L804.562,276.598C823.968,276.598 839.724,292.353 839.724,311.76Z"/>
        </g>
    </g>
    <g transform="matrix(1,0,0,1,-15.448271,-67.476783)">
        <g transform="matrix(1,0,0,1,56.275862,30.091028)">
            <path d="M839.724,311.76L839.724,754.906C839.724,774.313 823.968,790.069 804.562,790.069L133.369,790.069C113.963,790.069 98.207,774.313 98.207,754.906L98.207,311.76C98.207,292.353 113.963,276.598 133.369,276.598L804.562,276.598C823.968,276.598 839.724,292.353 839.724,311.76Z"/>
        </g>
        <g transform="matrix(0.5,0,0,0.836676,105.37931,76.433823)">
            <path d="M839.724,306.943L839.724,759.723C839.724,776.471 816.971,790.069 788.945,790.069L148.986,790.069C120.96,790.069 98.207,776.471 98.207,759.723L98.207,306.943C98.207,290.195 120.96,276.598 148.986,276.598L788.945,276.598C816.971,276.598 839.724,290.195 839.724,306.943Z" style="fill:white;"/>
        </g>
        <g transform="matrix(1,0,0,1,56.275862,68.04042)">
            <path d="M839.724,311.76L839.724,754.906C839.724,774.313 823.968,790.069 804.562,790.069L133.369,790.069C113.963,790.069 98.207,774.313 98.207,754.906L98.207,311.76C98.207,292.353 113.963,276.598 133.369,276.598L804.562,276.598C823.968,276.598 839.724,292.353 839.724,311.76Z" style="fill:white;"/>
        </g>
        <g transform="matrix(0.5,0,0,0.836676,105.37931,114.324437)">
            <path d="M839.724,306.943L839.724,759.723C839.724,776.471 816.971,790.069 788.945,790.069L148.986,790.069C120.96,790.069 98.207,776.471 98.207,759.723L98.207,306.943C98.207,290.195 120.96,276.598 148.986,276.598L788.945,276.598C816.971,276.598 839.724,290.195 839.724,306.943Z"/>
        </g>
        <g transform="matrix(1,0,0,1,56.275862,105.931034)">
            <path d="M839.724,311.76L839.724,754.906C839.724,774.313 823.968,790.069 804.562,790.069L133.369,790.069C113.963,790.069 98.207,774.313 98.207,754.906L98.207,311.76C98.207,292.353 113.963,276.598 133.369,276.598L804.562,276.598C823.968,276.598 839.724,292.353 839.724,311.76Z"/>
        </g>
        <g transform="matrix(1,0,0,1,110.32551,137.062951)">
            <path d="M448,386.3L448,603.861C448,612.991 440.588,620.403 431.458,620.403L398.374,620.403C389.244,620.403 381.832,612.991 381.832,603.861L381.832,386.3C381.832,377.17 389.244,369.758 398.374,369.758L431.458,369.758C440.588,369.758 448,377.17 448,386.3Z" style="fill:white;"/>
        </g>
        <g transform="matrix(-1,0,-0,-0.528411,913.18437,1023.325206)">
            <path d="M377.919,391.915C380.526,386.702 384.151,383.749 387.943,383.749C391.735,383.749 395.36,386.702 397.967,391.915C418.084,432.149 463.794,523.569 491.232,578.446C495.021,586.024 496.064,597.141 493.884,606.723C491.704,616.304 486.721,622.512 481.209,622.512C433.106,622.512 342.78,622.512 294.677,622.512C289.165,622.512 284.182,616.304 282.002,606.723C279.822,597.141 280.865,586.024 284.654,578.446C312.092,523.569 357.802,432.149 377.919,391.915Z" style="fill:rgb(235,235,235);"/>
        </g>
    </g>
</svg>
