<?xml version="1.0" encoding="UTF-8" standalone="no"?>
<!DOCTYPE svg PUBLIC "-//W3C//DTD SVG 1.1//EN" "http://www.w3.org/Graphics/SVG/1.1/DTD/svg11.dtd">
<svg width="100%" height="100%" viewBox="0 0 896 896" version="1.1" xmlns="http://www.w3.org/2000/svg" xmlns:xlink="http://www.w3.org/1999/xlink" xml:space="preserve" xmlns:serif="http://www.serif.com/" style="fill-rule:evenodd;clip-rule:evenodd;stroke-linejoin:round;stroke-miterlimit:2;">
    <g transform="matrix(0,1,-0.817202,0,784.581724,5.537166)">
        <path d="M442.463,56.806C442.463,56.806 571.015,306.637 571.015,413.707C571.015,500.528 513.413,571.015 442.463,571.015C371.513,571.015 313.91,500.528 313.91,413.707C313.91,306.637 442.463,56.806 442.463,56.806Z"/>
    </g>
    <g transform="matrix(0,-1,0.817202,0,111.418276,890.462834)">
        <path d="M442.463,56.806C442.463,56.806 571.015,306.637 571.015,413.707C571.015,500.528 513.413,571.015 442.463,571.015C371.513,571.015 313.91,500.528 313.91,413.707C313.91,306.637 442.463,56.806 442.463,56.806Z"/>
    </g>
    <g transform="matrix(0,0.676148,-0.55255,0,675.579007,148.829709)">
        <path d="M442.463,56.806C442.463,56.806 571.015,306.637 571.015,413.707C571.015,500.528 513.413,571.015 442.463,571.015C371.513,571.015 313.91,500.528 313.91,413.707C313.91,306.637 442.463,56.806 442.463,56.806Z" style="fill:white;"/>
    </g>
    <g transform="matrix(0,-0.676148,0.55255,0,220.420993,747.170291)">
        <path d="M442.463,56.806C442.463,56.806 571.015,306.637 571.015,413.707C571.015,500.528 513.413,571.015 442.463,571.015C371.513,571.015 313.91,500.528 313.91,413.707C313.91,306.637 442.463,56.806 442.463,56.806Z" style="fill:white;"/>
    </g>
    <g transform="matrix(0.631915,0,0,0.631915,141.361968,137.954707)">
        <circle cx="485.252" cy="490.644" r="92.801"/>
    </g>
</svg>
