<?xml version="1.0" encoding="UTF-8" standalone="no"?>
<!DOCTYPE svg PUBLIC "-//W3C//DTD SVG 1.1//EN" "http://www.w3.org/Graphics/SVG/1.1/DTD/svg11.dtd">
<svg width="100%" height="100%" viewBox="0 0 896 896" version="1.1" xmlns="http://www.w3.org/2000/svg" xmlns:xlink="http://www.w3.org/1999/xlink" xml:space="preserve" xmlns:serif="http://www.serif.com/" style="fill-rule:evenodd;clip-rule:evenodd;stroke-linejoin:round;stroke-miterlimit:2;">
    <g transform="matrix(1,0,0,1,0,45.609211)">
        <path d="M613.149,273.655L613.149,479.632C613.149,568.954 540.632,641.471 451.31,641.471C361.989,641.471 289.471,568.954 289.471,479.632L289.471,273.655C289.471,184.334 361.989,111.816 451.31,111.816C540.632,111.816 613.149,184.334 613.149,273.655Z"/>
    </g>
    <g transform="matrix(0.515748,0,0,0.600112,218.547972,183.442761)">
        <path d="M613.149,250.904L613.149,502.384C613.149,579.148 540.632,641.471 451.31,641.471C361.989,641.471 289.471,579.148 289.471,502.384L289.471,250.904C289.471,174.139 361.989,111.816 451.31,111.816C540.632,111.816 613.149,174.139 613.149,250.904Z" style="fill:white;"/>
    </g>
    <g transform="matrix(1,0,0,1.302632,-84.597724,-120.121058)">
        <path d="M764.69,500.23L764.69,667.954C764.69,714.239 715.74,751.816 655.448,751.816L416.368,751.816C356.076,751.816 307.126,714.239 307.126,667.954L307.126,500.23C307.126,453.945 356.076,416.368 416.368,416.368L655.448,416.368C715.74,416.368 764.69,453.945 764.69,500.23Z"/>
    </g>
    <g transform="matrix(1,0,0,1,-10.105754,48.646444)">
        <circle cx="461.416" cy="603.416" r="83.665" style="fill:white;"/>
    </g>
</svg>
