<?xml version="1.0" encoding="UTF-8" standalone="no"?>
<!DOCTYPE svg PUBLIC "-//W3C//DTD SVG 1.1//EN" "http://www.w3.org/Graphics/SVG/1.1/DTD/svg11.dtd">
<svg width="100%" height="100%" viewBox="0 0 896 896" version="1.1" xmlns="http://www.w3.org/2000/svg" xmlns:xlink="http://www.w3.org/1999/xlink" xml:space="preserve" xmlns:serif="http://www.serif.com/" style="fill-rule:evenodd;clip-rule:evenodd;stroke-linejoin:round;stroke-miterlimit:2;">
    <g transform="matrix(0,0.915174,-0.52831,0,806.086032,-125.677423)">
        <path d="M585.553,202.797C595.931,182.043 611,170.118 626.851,170.118C642.702,170.118 657.771,182.043 668.149,202.797C720.252,307.005 810.94,488.381 876.347,619.195C890.349,647.199 893.631,686.782 884.744,720.481C875.858,754.18 856.437,775.798 835.05,775.798L418.652,775.798C397.265,775.798 377.844,754.18 368.957,720.481C360.071,686.782 363.352,647.199 377.355,619.195C442.761,488.381 533.45,307.005 585.553,202.797Z"/>
    </g>
    <g transform="matrix(1.351864,0,0,0.90557,-95.680564,42.304708)">
        <path d="M329.21,167.018L329.21,728.982C329.21,754.82 315.158,775.798 297.85,775.798L235.13,775.798C217.822,775.798 203.77,754.82 203.77,728.982L203.77,167.018C203.77,141.18 217.822,120.202 235.13,120.202L297.85,120.202C315.158,120.202 329.21,141.18 329.21,167.018Z"/>
    </g>
</svg>
