<?xml version="1.0" encoding="UTF-8" standalone="no"?>
<!DOCTYPE svg PUBLIC "-//W3C//DTD SVG 1.1//EN" "http://www.w3.org/Graphics/SVG/1.1/DTD/svg11.dtd">
<svg width="100%" height="100%" viewBox="0 0 896 896" version="1.1" xmlns="http://www.w3.org/2000/svg" xmlns:xlink="http://www.w3.org/1999/xlink" xml:space="preserve" xmlns:serif="http://www.serif.com/" style="fill-rule:evenodd;clip-rule:evenodd;stroke-linejoin:round;stroke-miterlimit:2;">
    <g transform="matrix(1,0,0,1,77.241379,134.953565)">
        <g transform="matrix(0.5,0,0,0.836676,-49.103448,-231.422701)">
            <path d="M839.724,306.943L839.724,759.723C839.724,776.471 816.971,790.069 788.945,790.069L148.986,790.069C120.96,790.069 98.207,776.471 98.207,759.723L98.207,306.943C98.207,290.195 120.96,276.598 148.986,276.598L788.945,276.598C816.971,276.598 839.724,290.195 839.724,306.943Z"/>
        </g>
        <g transform="matrix(1,0,0,1,-98.206897,-239.816103)">
            <path d="M839.724,311.76L839.724,754.906C839.724,774.313 823.968,790.069 804.562,790.069L133.369,790.069C113.963,790.069 98.207,774.313 98.207,754.906L98.207,311.76C98.207,292.353 113.963,276.598 133.369,276.598L804.562,276.598C823.968,276.598 839.724,292.353 839.724,311.76Z"/>
        </g>
        <g transform="matrix(0.5,0,0,0.836676,-49.103448,-193.473308)">
            <path d="M839.724,306.943L839.724,759.723C839.724,776.471 816.971,790.069 788.945,790.069L148.986,790.069C120.96,790.069 98.207,776.471 98.207,759.723L98.207,306.943C98.207,290.195 120.96,276.598 148.986,276.598L788.945,276.598C816.971,276.598 839.724,290.195 839.724,306.943Z" style="fill:white;"/>
        </g>
        <g transform="matrix(1,0,0,1,-98.206897,-201.86671)">
            <path d="M839.724,311.76L839.724,754.906C839.724,774.313 823.968,790.069 804.562,790.069L133.369,790.069C113.963,790.069 98.207,774.313 98.207,754.906L98.207,311.76C98.207,292.353 113.963,276.598 133.369,276.598L804.562,276.598C823.968,276.598 839.724,292.353 839.724,311.76Z" style="fill:white;"/>
        </g>
        <g transform="matrix(0.5,0,0,0.836676,-49.103448,-155.582694)">
            <path d="M839.724,306.943L839.724,759.723C839.724,776.471 816.971,790.069 788.945,790.069L148.986,790.069C120.96,790.069 98.207,776.471 98.207,759.723L98.207,306.943C98.207,290.195 120.96,276.598 148.986,276.598L788.945,276.598C816.971,276.598 839.724,290.195 839.724,306.943Z"/>
        </g>
        <g transform="matrix(1,0,0,1,-98.206897,-163.976096)">
            <path d="M839.724,311.76L839.724,754.906C839.724,774.313 823.968,790.069 804.562,790.069L133.369,790.069C113.963,790.069 98.207,774.313 98.207,754.906L98.207,311.76C98.207,292.353 113.963,276.598 133.369,276.598L804.562,276.598C823.968,276.598 839.724,292.353 839.724,311.76Z"/>
        </g>
    </g>
</svg>
