<?xml version="1.0" encoding="UTF-8" standalone="no"?>
<!DOCTYPE svg PUBLIC "-//W3C//DTD SVG 1.1//EN" "http://www.w3.org/Graphics/SVG/1.1/DTD/svg11.dtd">
<svg width="100%" height="100%" viewBox="0 0 896 896" version="1.1" xmlns="http://www.w3.org/2000/svg" xmlns:xlink="http://www.w3.org/1999/xlink" xml:space="preserve" xmlns:serif="http://www.serif.com/" style="fill-rule:evenodd;clip-rule:evenodd;stroke-linejoin:round;stroke-miterlimit:2;">
    <g transform="matrix(1.351864,0,0,1,-72.324548,0)">
        <path d="M329.21,162.597L329.21,733.403C329.21,756.801 315.158,775.798 297.85,775.798L235.13,775.798C217.822,775.798 203.77,756.801 203.77,733.403L203.77,162.597C203.77,139.199 217.822,120.202 235.13,120.202L297.85,120.202C315.158,120.202 329.21,139.199 329.21,162.597Z"/>
    </g>
    <g transform="matrix(1.351864,0,0,1,246.438835,0)">
        <path d="M329.21,162.597L329.21,733.403C329.21,756.801 315.158,775.798 297.85,775.798L235.13,775.798C217.822,775.798 203.77,756.801 203.77,733.403L203.77,162.597C203.77,139.199 217.822,120.202 235.13,120.202L297.85,120.202C315.158,120.202 329.21,139.199 329.21,162.597Z"/>
    </g>
</svg>
