<?xml version="1.0" encoding="UTF-8" standalone="no"?>
<!DOCTYPE svg PUBLIC "-//W3C//DTD SVG 1.1//EN" "http://www.w3.org/Graphics/SVG/1.1/DTD/svg11.dtd">
<svg width="100%" height="100%" viewBox="0 0 896 896" version="1.1" xmlns="http://www.w3.org/2000/svg" xmlns:xlink="http://www.w3.org/1999/xlink" xml:space="preserve" xmlns:serif="http://www.serif.com/" style="fill-rule:evenodd;clip-rule:evenodd;stroke-linejoin:round;stroke-miterlimit:2;">
    <g transform="matrix(1,0,0,1.085209,-3.310311,-44.068314)">
        <path d="M613.149,260.948L613.149,492.34C613.149,574.648 540.632,641.471 451.31,641.471C361.989,641.471 289.471,574.648 289.471,492.34L289.471,260.948C289.471,178.64 361.989,111.816 451.31,111.816C540.632,111.816 613.149,178.64 613.149,260.948Z"/>
    </g>
    <g transform="matrix(0.515748,0,0,0.909397,215.237661,68.709956)">
        <path d="M613.149,203.6L613.149,549.687C613.149,600.344 540.632,641.471 451.31,641.471C361.989,641.471 289.471,600.344 289.471,549.687L289.471,203.6C289.471,152.943 361.989,111.816 451.31,111.816C540.632,111.816 613.149,152.943 613.149,203.6Z" style="fill:white;"/>
    </g>
    <g transform="matrix(1,0,0,3.358045,-14.669531,-961.07314)">
        <path d="M680.092,379.065L680.092,407.857C680.092,415.802 658.43,422.253 631.75,422.253L467.54,422.253C440.859,422.253 419.197,415.802 419.197,407.857L419.197,379.065C419.197,371.12 440.859,364.669 467.54,364.669L631.75,364.669C658.43,364.669 680.092,371.12 680.092,379.065Z" style="fill:rgb(235,235,235);"/>
    </g>
    <g transform="matrix(1,0,0,1.302632,-84.597724,-120.121058)">
        <path d="M764.69,500.23L764.69,667.954C764.69,714.239 715.74,751.816 655.448,751.816L416.368,751.816C356.076,751.816 307.126,714.239 307.126,667.954L307.126,500.23C307.126,453.945 356.076,416.368 416.368,416.368L655.448,416.368C715.74,416.368 764.69,453.945 764.69,500.23Z"/>
    </g>
    <g transform="matrix(1,0,0,1,-10.105754,48.646444)">
        <circle cx="461.416" cy="603.416" r="83.665" style="fill:white;"/>
    </g>
    <g transform="matrix(1,0,0,1.17468,0,-160.01485)">
        <path d="M609.839,326.883L609.839,362.18C609.839,373.107 599.418,381.978 586.583,381.978L554.724,381.978C541.889,381.978 531.468,373.107 531.468,362.18L531.468,326.883C531.468,315.956 541.889,307.085 554.724,307.085L586.583,307.085C599.418,307.085 609.839,315.956 609.839,326.883Z"/>
    </g>
</svg>
