<?xml version="1.0" encoding="UTF-8" standalone="no"?>
<!DOCTYPE svg PUBLIC "-//W3C//DTD SVG 1.1//EN" "http://www.w3.org/Graphics/SVG/1.1/DTD/svg11.dtd">
<svg width="100%" height="100%" viewBox="0 0 896 896" version="1.1" xmlns="http://www.w3.org/2000/svg" xmlns:xlink="http://www.w3.org/1999/xlink" xml:space="preserve" xmlns:serif="http://www.serif.com/" style="fill-rule:evenodd;clip-rule:evenodd;stroke-linejoin:round;stroke-miterlimit:2;">
    <g transform="matrix(0.501936,0.501936,-0.959517,0.959517,754.434973,-276.775665)">
        <path d="M557.043,291.984L557.043,726.735C557.043,767.929 493.11,801.373 414.363,801.373C335.616,801.373 271.683,767.929 271.683,726.735L271.683,291.984C271.683,250.791 335.616,217.347 414.363,217.347C493.11,217.347 557.043,250.791 557.043,291.984Z"/>
    </g>
    <g transform="matrix(0.300429,0.300429,-0.606859,0.606859,588.440961,56.212622)">
        <path d="M557.043,287.981L557.043,730.739C557.043,769.723 493.11,801.373 414.363,801.373C335.616,801.373 271.683,769.723 271.683,730.739L271.683,287.981C271.683,248.997 335.616,217.347 414.363,217.347C493.11,217.347 557.043,248.997 557.043,287.981Z" style="fill:white;"/>
    </g>
    <g transform="matrix(0.847558,0.847558,-0.199827,0.199827,232.055803,-139.821634)">
        <path d="M626.535,209.775L626.535,613.776C626.535,656.927 618.275,691.96 608.101,691.96L337.43,691.96C327.256,691.96 318.997,656.927 318.997,613.776L318.997,209.775C318.997,166.624 327.256,131.591 337.43,131.591L608.101,131.591C618.275,131.591 626.535,166.624 626.535,209.775Z"/>
    </g>
    <g transform="matrix(0.785751,0.785751,-0.785751,0.785751,542.639699,127.05169)">
        <circle cx="145.518" cy="612.106" r="57.175"/>
    </g>
    <g transform="matrix(1.476411,0,0,1.090479,-97.030654,-95.821311)">
        <rect x="197.212" y="624.628" width="96.065" height="101.44"/>
    </g>
    <g transform="matrix(1,0,0,1,11.651774,-23.127627)">
        <rect x="197.212" y="608.45" width="194.954" height="29.047"/>
    </g>
    <g transform="matrix(0.356327,0,0,1.78418,237.068892,-486.589619)">
        <rect x="197.212" y="608.45" width="194.954" height="29.047"/>
    </g>
</svg>
