<?xml version="1.0" encoding="UTF-8" standalone="no"?>
<!DOCTYPE svg PUBLIC "-//W3C//DTD SVG 1.1//EN" "http://www.w3.org/Graphics/SVG/1.1/DTD/svg11.dtd">
<svg width="100%" height="100%" viewBox="0 0 896 896" version="1.1" xmlns="http://www.w3.org/2000/svg" xmlns:xlink="http://www.w3.org/1999/xlink" xml:space="preserve" xmlns:serif="http://www.serif.com/" style="fill-rule:evenodd;clip-rule:evenodd;stroke-linejoin:round;stroke-miterlimit:2;">
    <g transform="matrix(0.31309,0.31309,-0.782864,0.782864,741.212124,-141.24856)">
        <path d="M626.535,180.279L626.535,643.272C626.535,670.144 571.984,691.96 504.793,691.96L440.739,691.96C373.547,691.96 318.997,670.144 318.997,643.272L318.997,180.279C318.997,153.407 373.547,131.591 440.739,131.591L504.793,131.591C571.984,131.591 626.535,153.407 626.535,180.279Z"/>
    </g>
    <g transform="matrix(0.977089,0.977089,-0.707107,0.707107,312.39298,-293.437883)">
        <rect x="379.915" y="87.147" width="136.17" height="49.098" style="fill:white;"/>
    </g>
    <g transform="matrix(-0.621027,-0.621027,1.005708,-1.005708,-18.22336,1381.578607)">
        <path d="M376.276,333.977C419.678,361.932 541.058,449.44 541.058,541.864C541.058,598.023 467.221,643.617 376.276,643.617C285.33,643.617 211.494,598.023 211.494,541.864C211.494,449.44 393.637,388.733 376.276,333.977Z" style="fill:white;"/>
    </g>
    <g transform="matrix(-0.53742,-0.53742,0.870312,-0.870312,19.349719,1281.086675)">
        <path d="M376.276,333.977C419.678,361.932 541.058,449.44 541.058,541.864C541.058,598.023 467.221,643.617 376.276,643.617C285.33,643.617 211.494,598.023 211.494,541.864C211.494,449.44 393.637,388.733 376.276,333.977Z"/>
    </g>
</svg>
